:FULLY-SPECIFIED
:FORCE-ALL-JOINTS-BE-3DOF
:DEGREES
170
root 6.51198 16.0145 -25.6823 4.31337 30.9341 1.32191
lfemur -23.7084 29.8854 -17.4116
ltibia 36.3692 0 0
lfoot -8.50548 11.2044 0
ltoes 32.8263 0 0
rfemur -26.3417 -8.83202 -4.16597
rtibia 74.6482 0 0
rfoot 7.26736 -23.7502 0
rtoes 48.6517 0 0
lowerback 1.54614 -6.49945 -2.04323
upperback -0.223666 -8.72211 -2.0625
thorax -1.00762 -4.34608 -0.724341
lowerneck -9.92739 -6.47127 -1.67991
upperneck 2.05936 -8.71139 5.45989
head 2.78552 -4.15855 1.57224
lclavicle 3.74393e-014 -1.21225e-014 0
lhumerus -48.8117 -42.725 114.832
lradius 51.8904 0 0
lwrist 13.848 0 0
lhand 39.3577 24.9171 0
lfingers 7.12502 0 0
lthumb 61.9806 37.4267 0
rclavicle 3.74393e-014 -1.21225e-014 0
rhumerus -47.3514 -22.1173 -70.8553
rradius 91.3174 0 0
rwrist -19.2116 0 0
rhand -25.9993 -24.1532 0
rfingers 7.12502 0 0
rthumb 0.551711 -428.765 0
171
root 6.46018 15.9837 -25.6709 4.47038 30.2483 1.45687
lfemur -23.0239 29.2702 -16.9731
ltibia 35.6404 0 0
lfoot -9.13118 10.8286 0
ltoes 33.1624 0 0
rfemur -26.2548 -9.11358 -4.37697
rtibia 74.3481 0 0
rfoot 6.54611 -22.9326 0
rtoes 49.3454 0 0
lowerback 1.34627 -6.41517 -2.012
upperback -0.267399 -8.6056 -2.24087
thorax -0.950465 -4.28837 -0.937437
lowerneck -9.94976 -6.33582 -1.48978
upperneck 2.11187 -8.55746 5.42829
head 2.80149 -4.0794 1.53722
lclavicle 3.7169e-014 -1.35761e-014 0
lhumerus -49.1181 -43.0553 115.011
lradius 51.9376 0 0
lwrist 14.1372 0 0
lhand 39.7103 25.1924 0
lfingers 7.12502 0 0
lthumb 62.2986 37.5028 0
rclavicle 3.7169e-014 -1.35761e-014 0
rhumerus -46.3037 -22.3808 -69.5818
rradius 90.6629 0 0
rwrist -19.5142 0 0
rhand -26.5382 -25.0924 0
rfingers 7.12502 0 0
rthumb 0.0319892 -431.044 0
172
root 6.40656 15.952 -25.6598 4.61962 29.4844 1.60038
lfemur -22.262 28.5814 -16.5032
ltibia 34.8453 0 0
lfoot -9.80655 10.3959 0
ltoes 33.5245 0 0
rfemur -26.2148 -9.42316 -4.58847
rtibia 73.9971 0 0
rfoot 5.78022 -22.009 0
rtoes 50.0082 0 0
lowerback 1.14958 -6.31923 -1.97955
upperback -0.307435 -8.47348 -2.42823
thorax -0.891671 -4.22293 -1.16096
lowerneck -9.97654 -6.185 -1.28225
upperneck 2.16658 -8.38515 5.38912
head 2.81808 -3.99107 1.49773
lclavicle 3.67467e-014 -1.51123e-014 0
lhumerus -49.434 -43.3738 115.172
lradius 51.982 0 0
lwrist 14.4441 0 0
lhand 40.051 25.466 0
lfingers 7.12502 0 0
lthumb 62.6052 37.5798 0
rclavicle 3.67467e-014 -1.51123e-014 0
rhumerus -45.1729 -22.6393 -68.1964
rradius 89.9281 0 0
rwrist -19.8164 0 0
rhand -27.0782 -26.0889 0
rfingers 7.12502 0 0
rthumb -0.488809 -432.924 0
173
root 6.35131 15.9195 -25.6489 4.7614 28.6483 1.7516
lfemur -21.4286 27.824 -16.0041
ltibia 33.989 0 0
lfoot -10.5279 9.91011 0
ltoes 33.9106 0 0
rfemur -26.2188 -9.75847 -4.79996
rtibia 73.5978 0 0
rfoot 4.97254 -20.9869 0
rtoes 50.641 0 0
lowerback 0.956182 -6.21238 -1.94592
upperback -0.343945 -8.32676 -2.62367
thorax -0.831428 -4.15023 -1.3939
lowerneck -10.0074 -6.01992 -1.05861
upperneck 2.22329 -8.19575 5.34278
head 2.83524 -3.89422 1.45404
lclavicle 3.61806e-014 -1.67236e-014 0
lhumerus -49.7587 -43.6804 115.316
lradius 52.0241 0 0
lwrist 14.7673 0 0
lhand 40.3791 25.7372 0
lfingers 7.12502 0 0
lthumb 62.9 37.6576 0
rclavicle 3.61806e-014 -1.67236e-014 0
rhumerus -43.9653 -22.8926 -66.7074
rradius 89.1181 0 0
rwrist -20.1169 0 0
rhand -27.6181 -27.138 0
rfingers 7.12502 0 0
rthumb -1.00963 -434.431 0
174
root 6.29462 15.8861 -25.6384 4.89602 27.7456 1.90971
lfemur -20.5297 27.0032 -15.4785
ltibia 33.0769 0 0
lfoot -11.2917 9.37487 0
ltoes 34.3187 0 0
rfemur -26.2638 -10.1172 -5.01094
rtibia 73.1529 0 0
rfoot 4.1259 -19.8738 0
rtoes 51.2447 0 0
lowerback 0.766154 -6.09534 -1.91116
upperback -0.377102 -8.16642 -2.82628
thorax -0.769927 -4.07077 -1.63526
lowerneck -10.0422 -5.84163 -0.820144
upperneck 2.28181 -7.99053 5.28967
head 2.85289 -3.78948 1.40643
lclavicle 3.54787e-014 -1.84022e-014 0
lhumerus -50.0911 -43.975 115.444
lradius 52.0641 0 0
lwrist 15.1053 0 0
lhand 40.6942 26.0055 0
lfingers 7.12502 0 0
lthumb 63.1825 37.7361 0
rclavicle 3.54787e-014 -1.84022e-014 0
rhumerus -42.6872 -23.1404 -65.1231
rradius 88.238 0 0
rwrist -20.4148 0 0
rhand -28.1568 -28.235 0
rfingers 7.12502 0 0
rthumb -1.52943 -435.592 0
175
root 6.23668 15.8522 -25.6281 5.02378 26.7823 2.07387
lfemur -19.5711 26.1242 -14.9286
ltibia 32.114 0 0
lfoot -12.0941 8.79386 0
ltoes 34.7467 0 0
rfemur -26.347 -10.497 -5.22091
rtibia 72.6653 0 0
rfoot 3.24314 -18.6775 0
rtoes 51.82 0 0
lowerback 0.579592 -5.96887 -1.87529
upperback -0.407075 -7.99346 -3.03515
thorax -0.707358 -3.98505 -1.88405
lowerneck -10.0804 -5.65124 -0.568119
upperneck 2.34191 -7.77077 5.23018
head 2.87097 -3.6775 1.35519
lclavicle 3.46491e-014 -2.01405e-014 0
lhumerus -50.4303 -44.2577 115.557
lradius 52.1022 0 0
lwrist 15.4567 0 0
lhand 40.9958 26.2703 0
lfingers 7.12502 0 0
lthumb 63.4522 37.8151 0
rclavicle 3.46491e-014 -2.01405e-014 0
rhumerus -41.345 -23.3825 -63.4519
rradius 87.2928 0 0
rwrist -20.7087 0 0
rhand -28.6933 -29.3751 0
rfingers 7.12502 0 0
rthumb -2.04715 -436.433 0
176
root 6.17767 15.8177 -25.6181 5.14497 25.764 2.24324
lfemur -18.5586 25.1922 -14.357
ltibia 31.1056 0 0
lfoot -12.9316 8.17075 0
ltoes 35.1927 0 0
rfemur -26.4653 -10.8956 -5.42936
rtibia 72.1375 0 0
rfoot 2.32711 -17.4054 0
rtoes 52.3678 0 0
lowerback 0.39659 -5.83369 -1.83838
upperback -0.434037 -7.80888 -3.24938
thorax -0.643912 -3.89355 -2.13925
lowerneck -10.1219 -5.44983 -0.303818
upperneck 2.4034 -7.53776 5.16469
head 2.88939 -3.55893 1.3006
lclavicle 3.37e-014 -2.1931e-014 0
lhumerus -50.7755 -44.5285 115.656
lradius 52.1389 0 0
lwrist 15.8202 0 0
lhand 41.2833 26.5311 0
lfingers 7.12502 0 0
lthumb 63.7087 37.8945 0
rclavicle 3.37e-014 -2.1931e-014 0
rhumerus -39.9449 -23.6187 -61.7021
rradius 86.2877 0 0
rwrist -20.9977 0 0
rhand -29.2266 -30.5535 0
rfingers 7.12502 0 0
rthumb -2.56175 -436.982 0
177
root 6.11779 15.7827 -25.6084 5.25989 24.6966 2.417
lfemur -17.4982 24.2124 -13.7661
ltibia 30.057 0 0
lfoot -13.8004 7.50923 0
ltoes 35.6546 0 0
rfemur -26.6159 -11.3106 -5.63579
rtibia 71.5723 0 0
rfoot 1.38064 -16.0651 0
rtoes 52.889 0 0
lowerback 0.21724 -5.69055 -1.80046
upperback -0.458158 -7.61365 -3.46807
thorax -0.579778 -3.79677 -2.39988
lowerneck -10.1662 -5.23846 -0.0285183
upperneck 2.46608 -7.29275 5.09361
head 2.90811 -3.43441 1.24293
lclavicle 3.26394e-014 -2.37659e-014 0
lhumerus -51.1258 -44.7873 115.741
lradius 52.1743 0 0
lwrist 16.1943 0 0
lhand 41.5561 26.7872 0
lfingers 7.12502 0 0
lthumb 63.9516 37.9742 0
rclavicle 3.26394e-014 -2.37659e-014 0
rhumerus -38.4933 -23.8488 -59.8821
rradius 85.2278 0 0
rwrist -21.2806 0 0
rhand -29.7554 -31.7656 0
rfingers 7.12502 0 0
rthumb -3.07217 -437.264 0
178
root 6.05721 15.7475 -25.599 5.36885 23.5858 2.5943
lfemur -16.3957 23.1899 -13.1583
ltibia 28.9733 0 0
lfoot -14.6969 6.81297 0
ltoes 36.1304 0 0
rfemur -26.7958 -11.7399 -5.8397
rtibia 70.9724 0 0
rfoot 0.40656 -14.6642 0
rtoes 53.3845 0 0
lowerback 0.0416362 -5.54018 -1.76158
upperback -0.479609 -7.40878 -3.69029
thorax -0.515146 -3.69521 -2.66493
lowerneck -10.2133 -5.01824 0.256501
upperneck 2.52972 -7.03705 5.01733
head 2.92705 -3.30458 1.18247
lclavicle 3.14754e-014 -2.56376e-014 0
lhumerus -51.4802 -45.0342 115.815
lradius 52.2089 0 0
lwrist 16.5775 0 0
lhand 41.8137 27.0382 0
lfingers 7.12502 0 0
lthumb 64.1802 38.0541 0
rclavicle 3.14754e-014 -2.56376e-014 0
rhumerus -36.9964 -24.0726 -58.0001
rradius 84.1181 0 0
rwrist -21.5563 0 0
rhand -30.2787 -33.0064 0
rfingers 7.12502 0 0
rthumb -3.57736 -437.308 0
179
root 5.99612 15.712 -25.5899 5.47215 22.4375 2.77431
lfemur -15.257 22.13 -12.536
ltibia 27.8597 0 0
lfoot -15.6174 6.08564 0
ltoes 36.6182 0 0
rfemur -27.002 -12.181 -6.04059
rtibia 70.3406 0 0
rfoot -0.592275 -13.2104 0
rtoes 53.8551 0 0
lowerback -0.130129 -5.38334 -1.72178
upperback -0.498561 -7.19526 -3.91516
thorax -0.450209 -3.58934 -2.93339
lowerneck -10.2627 -4.79024 0.54996
upperneck 2.59414 -6.77191 4.93624
head 2.94613 -3.1701 1.11951
lclavicle 3.02161e-014 -2.75386e-014 0
lhumerus -51.8379 -45.2691 115.876
lradius 52.2428 0 0
lwrist 16.9686 0 0
lhand 42.0557 27.2834 0
lfingers 7.12502 0 0
lthumb 64.3943 38.1341 0
rclavicle 3.02161e-014 -2.75386e-014 0
rhumerus -35.4606 -24.2898 -56.0646
rradius 82.9637 0 0
rwrist -21.8236 0 0
rhand -30.7955 -34.2714 0
rfingers 7.12502 0 0
rthumb -4.07628 -437.139 0
180
root 5.93472 15.6763 -25.581 5.57008 21.2575 2.9562
lfemur -14.0881 21.0378 -11.9018
ltibia 26.7215 0 0
lfoot -16.5584 5.33093 0
ltoes 37.1159 0 0
rfemur -27.2317 -12.6316 -6.23795
rtibia 69.6796 0 0
rfoot -1.61303 -11.711 0
rtoes 54.3017 0 0
lowerback -0.297963 -5.22074 -1.68111
upperback -0.515185 -6.97409 -4.14176
thorax -0.385154 -3.47967 -3.20428
lowerneck -10.3141 -4.55554 0.850582
upperneck 2.65912 -6.49863 4.85073
head 2.9653 -3.0316 1.05431
lclavicle 2.88696e-014 -2.94612e-014 0
lhumerus -52.1979 -45.4921 115.927
lradius 52.2764 0 0
lwrist 17.3661 0 0
lhand 42.2814 27.5223 0
lfingers 7.12502 0 0
lthumb 64.5933 38.214 0
rclavicle 2.88696e-014 -2.94612e-014 0
rhumerus -33.8922 -24.5002 -54.084
rradius 81.7696 0 0
rwrist -22.0815 0 0
rhand -31.3046 -35.5556 0
rfingers 7.12502 0 0
rthumb -4.56786 -436.784 0
181
root 5.87319 15.6406 -25.5725 5.66294 20.0514 3.13914
lfemur -12.8947 19.9184 -11.258
ltibia 25.5639 0 0
lfoot -17.516 4.55252 0
ltoes 37.6215 0 0
rfemur -27.4819 -13.0895 -6.43128
rtibia 68.992 0 0
rfoot -2.65287 -10.1739 0
rtoes 54.7251 0 0
lowerback -0.461771 -5.05315 -1.6396
upperback -0.529653 -6.74624 -4.36918
thorax -0.320173 -3.3667 -3.47658
lowerneck -10.3673 -4.31522 1.15709
upperneck 2.72446 -6.21848 4.7612
head 2.98448 -2.88973 0.987175
lclavicle 2.7444e-014 -3.13977e-014 0
lhumerus -52.5594 -45.7031 115.968
lradius 52.31 0 0
lwrist 17.7685 0 0
lhand 42.4903 27.7543 0
lfingers 7.12502 0 0
lthumb 64.7768 38.2938 0
rclavicle 2.7444e-014 -3.13977e-014 0
rhumerus -32.2974 -24.7035 -52.0664
rradius 80.5411 0 0
rwrist -22.3288 0 0
rhand -31.805 -36.8544 0
rfingers 7.12502 0 0
rthumb -5.05107 -436.27 0
182
root 5.8117 15.605 -25.5643 5.75104 18.8252 3.32229
lfemur -11.6828 18.7772 -10.6071
ltibia 24.3921 0 0
lfoot -18.4867 3.75408 0
ltoes 38.133 0 0
rfemur -27.7496 -13.5523 -6.62007
rtibia 68.2807 0 0
rfoot -3.70896 -8.60641 0
rtoes 55.1261 0 0
lowerback -0.621462 -4.88128 -1.59731
upperback -0.542136 -6.51272 -4.59652
thorax -0.255456 -3.2509 -3.7493
lowerneck -10.4219 -4.07038 1.4682
upperneck 2.78996 -5.93273 4.66804
head 3.00361 -2.74513 0.918371
lclavicle 2.59474e-014 -3.33405e-014 0
lhumerus -52.9213 -45.9021 116.001
lradius 52.3439 0 0
lwrist 18.1745 0 0
lhand 42.6819 27.9788 0
lfingers 7.12502 0 0
lthumb 64.9443 38.3732 0
rclavicle 2.59474e-014 -3.33405e-014 0
rhumerus -30.6827 -24.8996 -50.0204
rradius 79.2832 0 0
rwrist -22.5643 0 0
rhand -32.2956 -38.163 0
rfingers 7.12502 0 0
rthumb -5.52484 -435.623 0
183
root 5.75047 15.5696 -25.5563 5.83468 17.5845 3.50481
lfemur -10.4582 17.6192 -9.95156
ltibia 23.2112 0 0
lfoot -19.4667 2.9393 0
ltoes 38.6483 0 0
rfemur -28.032 -14.0177 -6.80382
rtibia 67.5483 0 0
rfoot -4.77845 -7.01626 0
rtoes 55.5057 0 0
lowerback -0.776942 -4.70589 -1.55428
upperback -0.552804 -6.27453 -4.82287
thorax -0.191193 -3.13277 -4.02144
lowerneck -10.4777 -3.82208 1.78264
upperneck 2.8554 -5.64266 4.57165
head 3.02262 -2.59846 0.848183
lclavicle 2.43878e-014 -3.5282e-014 0
lhumerus -53.283 -46.0891 116.026
lradius 52.3784 0 0
lwrist 18.5827 0 0
lhand 42.8556 28.1952 0
lfingers 7.12502 0 0
lthumb 65.0953 38.4523 0
rclavicle 2.43878e-014 -3.5282e-014 0
rhumerus -29.0542 -25.0883 -47.9541
rradius 78.0009 0 0
rwrist -22.787 0 0
rhand -32.7753 -39.4766 0
rfingers 7.12502 0 0
rthumb -5.98814 -434.871 0
